<svg fill="none" height="70" viewBox="0 0 70 70" width="70" xmlns="http://www.w3.org/2000/svg"><g fill="#fff"><path d="m27.6674 12.5379h-.9443v-.9443c0-.5665-.4593-1.0259-1.026-1.0259s-1.0259.4594-1.0259 1.0259v.9443h-.9443c-.5667 0-1.026.4594-1.026 1.026 0 .5665.4593 1.0259 1.026 1.0259h.9443v.9445c0 .5665.4592 1.0259 1.0259 1.0259s1.026-.4594 1.026-1.0259v-.9445h.9443c.5667 0 1.0259-.4594 1.0259-1.0259 0-.5666-.4592-1.026-1.0259-1.026z"/><path d="m46.2719 12.5379h-.9443v-.9443c0-.5665-.4593-1.0259-1.026-1.0259s-1.0259.4594-1.0259 1.0259v.9443h-.9443c-.5667 0-1.026.4594-1.026 1.026 0 .5665.4593 1.0259 1.026 1.0259h.9443v.9445c0 .5665.4592 1.0259 1.0259 1.0259s1.026-.4594 1.026-1.0259v-.9445h.9443c.5667 0 1.0259-.4594 1.0259-1.0259 0-.5666-.4592-1.026-1.0259-1.026z"/><path d="m27.6674 26.6295h-.9443v-.9443c0-.5666-.4593-1.026-1.026-1.026s-1.0259.4594-1.0259 1.026v.9443h-.9443c-.5667 0-1.026.4594-1.026 1.026 0 .5665.4593 1.0259 1.026 1.0259h.9443v.9443c0 .5666.4592 1.026 1.0259 1.026s1.026-.4594 1.026-1.026v-.9443h.9443c.5667 0 1.0259-.4594 1.0259-1.0259 0-.5666-.4592-1.026-1.0259-1.026z"/><path d="m46.2719 26.6295h-.9443v-.9443c0-.5666-.4593-1.026-1.026-1.026s-1.0259.4594-1.0259 1.026v.9443h-.9443c-.5667 0-1.026.4594-1.026 1.026 0 .5665.4593 1.0259 1.026 1.0259h.9443v.9443c0 .5666.4592 1.026 1.0259 1.026s1.026-.4594 1.026-1.026v-.9443h.9443c.5667 0 1.0259-.4594 1.0259-1.0259 0-.5666-.4592-1.026-1.0259-1.026z"/><path d="m63.4561 29.0518h-13.5769c-1.1598 0-2.1034.9435-2.1034 2.1033v2.7775c0 1.1598.9435 2.1033 2.1034 2.1033h.1973v4.6441c-.9133-.7194-2.0639-1.1503-3.3139-1.1503h-23.795c-1.25 0-2.4007.4308-3.3138 1.1503v-4.654h.4672c1.1598 0 2.1034-.9435 2.1034-2.1033v-2.7776c0-1.1598-.9435-2.1033-2.1034-2.1033h-13.57691c-1.15978 0-2.10342.9435-2.10342 2.1033v2.7776c0 1.1598.9435 2.1033 2.10342 2.1033h.46717v13.0945c0 2.0948 1.61342 3.819 3.66284 3.9977v2.0462c0 1.6251 1.3222 2.9471 2.9473 2.9471h2.351v9.8366h-1.4689c-.5667 0-1.026.4593-1.026 1.0259s.4593 1.0259 1.026 1.0259h10.2512c.5667 0 1.0259-.4593 1.0259-1.0259s-.4592-1.0259-1.0259-1.0259h-1.469v-9.8366h23.159v9.8366h-1.4689c-.5667 0-1.0259.4593-1.0259 1.0259s.4592 1.0259 1.0259 1.0259h10.2513c.5667 0 1.026-.4593 1.026-1.0259s-.4593-1.0259-1.026-1.0259h-1.469v-9.8366h2.3511c1.6251 0 2.9471-1.322 2.9471-2.9471v-2.0462c2.0495-.1786 3.6629-1.9029 3.6629-3.9977v-13.0846h.7372c1.1598 0 2.1034-.9435 2.1034-2.1033v-2.7775c-.0003-1.1597-.9438-2.1033-2.1037-2.1033zm-40.4885 12.53h23.7951c1.8274 0 3.3139 1.4865 3.3139 3.3139v6.1868h-30.4229v-6.1868c0-1.8274 1.4866-3.3139 3.3139-3.3139zm-16.42351-7.6077c-.0283 0-.0514-.0231-.0514-.0514v-2.7776c0-.0283.0231-.0514.0514-.0514h13.57691c.0283 0 .0514.0231.0514.0514v2.7776c0 .0283-.0231.0514-.0514.0514zm4.48111 17.1086c-1.08186-.0002-1.96206-.8804-1.96206-1.9621v-13.0945h8.53866v15.0566zm10.2085 16.8654h-3.2093v-9.8364h3.2093zm30.4722 0h-3.2093v-9.8364h3.2093zm5.2983-12.7837c0 .4937-.4016.8953-.8951.8953h-42.4877c-.4937 0-.8954-.4016-.8954-.8953v-2.03h44.2782zm3.6628-6.0438c0 1.0819-.8802 1.9619-1.962 1.9619h-6.5765v-15.0464h8.5385zm2.8406-15.1878c0 .0283-.0231.0514-.0514.0514h-13.5768c-.0283 0-.0515-.0231-.0515-.0514v-2.7776c0-.0283.0232-.0514.0515-.0514h13.5768c.0283 0 .0514.0231.0514.0514z"/><path d="m57.6955 8.45511c.0003-4.66211-3.7927-8.45511-8.4548-8.45511h-28.7543c-4.6623 0-8.4552 3.793-8.4552 8.45511v16.81389c.0002.5667.4594 1.0259 1.0261 1.0259s1.026-.4594 1.026-1.0259v-16.81389c0-3.53076 2.8724-6.40323 6.4031-6.40323h28.7542c3.5306 0 6.4031 2.87247 6.4031 6.40802l.0794 16.8138c.0027.565.4614 1.0212 1.0258 1.0212h.0049c.5667-.0027 1.0239-.4642 1.0212-1.0309z"/></g></svg>